<svg aria-hidden="true" style="position: absolute; width: 0; height: 0; overflow: hidden;" version="1.1" xmlns="http://www.w3.org/2000/svg" xmlns:xlink="http://www.w3.org/1999/xlink">
<defs>
<symbol id="icon-up-active" viewBox="0 0 32 32">
<path d="M14.293 8.294c0.093-0.093 0.203-0.167 0.325-0.217s0.252-0.076 0.383-0.076c0.132 0 0.262 0.026 0.383 0.076s0.232 0.124 0.325 0.217l12 12c0.188 0.188 0.293 0.442 0.293 0.708s-0.106 0.52-0.293 0.708c-0.188 0.188-0.442 0.293-0.708 0.293s-0.52-0.105-0.708-0.293l-11.292-11.294-11.292 11.294c-0.188 0.188-0.442 0.293-0.708 0.293s-0.52-0.105-0.708-0.293c-0.188-0.188-0.293-0.442-0.293-0.708s0.105-0.52 0.293-0.708l12-12z"></path>
</symbol>
<symbol id="icon-up-default" viewBox="0 0 32 32">
<path d="M2.294 8.294c0.093-0.093 0.203-0.167 0.325-0.217s0.252-0.076 0.383-0.076c0.132 0 0.262 0.026 0.383 0.076s0.232 0.124 0.325 0.217l11.292 11.294 11.292-11.294c0.093-0.093 0.203-0.167 0.325-0.217s0.252-0.076 0.383-0.076c0.131 0 0.262 0.026 0.383 0.076s0.232 0.124 0.325 0.217 0.167 0.203 0.217 0.325c0.050 0.121 0.076 0.252 0.076 0.383s-0.026 0.262-0.076 0.383c-0.050 0.121-0.124 0.232-0.217 0.325l-12 12c-0.093 0.093-0.203 0.167-0.325 0.217s-0.252 0.076-0.383 0.076c-0.132 0-0.262-0.026-0.383-0.076s-0.232-0.124-0.325-0.217l-12-12c-0.093-0.093-0.167-0.203-0.217-0.325s-0.076-0.252-0.076-0.383c0-0.132 0.026-0.262 0.076-0.383s0.124-0.232 0.217-0.325z"></path>
</symbol>
<symbol id="icon-add" viewBox="0 0 32 32">
<path d="M14.383 16.825v5.127c0 0.339 0.114 0.624 0.342 0.853s0.516 0.344 0.862 0.344c0.346 0 0.631-0.113 0.855-0.34s0.336-0.514 0.336-0.859v-5.124h5.165c0.339 0 0.624-0.114 0.853-0.342s0.344-0.516 0.344-0.862c0-0.346-0.113-0.631-0.34-0.855s-0.514-0.336-0.859-0.336h-5.162v-5.431c0-0.339-0.114-0.624-0.342-0.853s-0.516-0.344-0.862-0.344c-0.346 0-0.631 0.113-0.855 0.34s-0.336 0.514-0.336 0.859v5.429h-5.393c-0.339 0-0.624 0.114-0.853 0.342s-0.344 0.516-0.344 0.862c0 0.346 0.113 0.631 0.34 0.855s0.514 0.336 0.859 0.336h5.391zM15.477 30.941c-2.138 0-4.145-0.405-6.021-1.214s-3.515-1.917-4.92-3.322c-1.405-1.405-2.512-3.046-3.322-4.922s-1.214-3.885-1.214-6.026c0-2.14 0.405-4.149 1.214-6.027s1.916-3.512 3.32-4.904c1.404-1.393 3.044-2.495 4.921-3.307s3.886-1.219 6.027-1.219c2.141 0 4.15 0.406 6.028 1.218s3.513 1.914 4.905 3.306c1.392 1.392 2.494 3.028 3.306 4.91s1.218 3.892 1.218 6.032c0 2.139-0.406 4.147-1.219 6.022s-1.915 3.513-3.307 4.912c-1.392 1.399-3.029 2.506-4.909 3.321s-3.89 1.221-6.028 1.221zM15.485 28.345c3.569 0 6.604-1.254 9.103-3.762s3.749-5.551 3.749-9.128c0-3.569-1.247-6.604-3.742-9.103s-5.539-3.749-9.133-3.749c-3.56 0-6.594 1.247-9.103 3.742s-3.763 5.539-3.763 9.133c0 3.56 1.254 6.594 3.762 9.103s5.551 3.763 9.128 3.763z"></path>
</symbol>
</defs>
</svg>
